<?xml version="1.0" encoding="utf-8"?><!-- Uploaded to: SVG Repo, www.svgrepo.com, Generator: SVG Repo Mixer Tools -->
<svg fill="#ffffff" width="800px" height="800px" viewBox="0 0 24 24" xmlns="http://www.w3.org/2000/svg" id="full-cross-circle" class="icon glyph"><path d="M20,2H4A2,2,0,0,0,2,4V20a2,2,0,0,0,2,2H20a2,2,0,0,0,2-2V4A2,2,0,0,0,20,2ZM15.71,14.29a1,1,0,0,1,0,1.42,1,1,0,0,1-1.42,0L12,13.42,9.71,15.71a1,1,0,0,1-1.42,0,1,1,0,0,1,0-1.42L10.58,12,8.29,9.71A1,1,0,0,1,9.71,8.29L12,10.58l2.29-2.29a1,1,0,0,1,1.42,1.42L13.42,12Z"></path></svg>