<?xml version="1.0" encoding="utf-8"?><!-- Uploaded to: SVG Repo, www.svgrepo.com, Generator: SVG Repo Mixer Tools -->
<svg fill="#ffffff" width="800px" height="800px" viewBox="0 0 24 24" xmlns="http://www.w3.org/2000/svg" id="sign-out-alt-3" class="icon glyph"><path d="M14,4.28V19.72A2.46,2.46,0,0,1,14,20a2,2,0,0,1-.75,1.29,2,2,0,0,1-1.23.43,2,2,0,0,1-.48-.06l-6-1.5A2,2,0,0,1,4,18.22V5.78A2,2,0,0,1,5.51,3.84l6-1.5A2,2,0,0,1,14,4,2.46,2.46,0,0,1,14,4.28Z"></path><path d="M20,6V18a2,2,0,0,1-2,2H15a1.27,1.27,0,0,0,0-.28V4.28A1.37,1.37,0,0,0,15,4h3A2,2,0,0,1,20,6Z"></path></svg>